<svg xmlns="http://www.w3.org/2000/svg" viewBox="0 0 64 64" role="img" aria-label="KeySwitch">
  <defs>
    <linearGradient id="surface" x1="8" y1="6" x2="56" y2="58" gradientUnits="userSpaceOnUse">
      <stop stop-color="#30333e"/>
      <stop offset="1" stop-color="#111218"/>
    </linearGradient>
    <linearGradient id="layer" x1="14" y1="12" x2="50" y2="53" gradientUnits="userSpaceOnUse">
      <stop stop-color="#d9dced" stop-opacity="0.46"/>
      <stop offset="1" stop-color="#7871dc" stop-opacity="0.74"/>
    </linearGradient>
    <path id="piece" d="M18 14h22c5 0 8 3 8 7 0 2-1 4-3 6L29 43c-1 1 0 2 1 2l2 1c2 0 2 2 1 3l-2 2c-1 1-3 2-5 2h-8c-5 0-9-4-9-9V23c0-5 4-9 9-9Z"/>
  </defs>
  <rect x="3" y="3" width="58" height="58" rx="15" fill="url(#surface)" stroke="#bfc4d9" stroke-opacity="0.34" stroke-width="2"/>
  <use href="#piece" fill="#292c36" stroke="url(#layer)" stroke-width="1.6"/>
  <use href="#piece" transform="rotate(180 32 32)" fill="#20232c" stroke="url(#layer)" stroke-width="1.6"/>
  <circle cx="32" cy="32" r="4" fill="#9e83ff" stroke="#171921" stroke-width="1.8"/>
</svg>
